{"title":"Lost S01E03 - AVM (Embedded subtitles)","uid":5032498,"size":185402205,"categoryP":"video","categoryS":"tv_shows","magnet":"?xt=urn:btih:123b497da7998bc64a008d460201ce0a5da072d0&amp;dn=Lost+S01E03+-+AVM+%28Embedded+subtitles%29&amp;tr=udp%3A%2F%2Ftracker.openbittorrent.com%3A80&amp;tr=udp%3A%2F%2Fopen.demonii.com%3A1337&amp;tr=udp%3A%2F%2Ftracker.coppersurfer.tk%3A6969&amp;tr=udp%3A%2F%2Fexodus.desync.com%3A6969","seeders":0,"leechers":1,"uploader":"SysProfile","files":2,"time":1248971941,"description":"AVIDMobile - http://www.avidmobile.com.ar (Mobile media)\n\n* The video contains embedded subtitles in Spanish. You can find the same video without the subtitles. Visit http://blog.avidmobile.com.ar.\n\n* El video contiene subtÃƒÂ­tulos incrustados en EspaÃƒÂ±ol. Usted podrÃƒÂ¡ encontrar el mismo video sin los subtÃƒÂ­tulos. Visite http://blog.avidmobile.com.ar\n\nVideo\nID : 1\nFormat : MPEG-4 Visual\nFormat profile : Simple@L1\nFormat settings, BVOP : No\nFormat settings, QPel : No\nFormat settings, GMC : No warppoints\nFormat settings, Matrix : Default (H.263)\nCodec ID : 20\nDuration : 43mn 29s\nBit rate mode : Variable\nBit rate : 503 Kbps\nMaximum bit rate : 2 634 Kbps\nWidth : 320 pixels\nHeight : 240 pixels\nDisplay aspect ratio : 4/3\nFrame rate mode : Variable\nFrame rate : 23.976 fps\nMinimum frame rate : 23.974 fps\nMaximum frame rate : 23.981 fps\nResolution : 24 bits\nColorimetry : 4:2:0\nScan type : Progressive\nBits/(Pixel*Frame) : 0.273\nStream size : 157 MiB (89%)\n\nAudio\nID : 2\nFormat : AAC\nFormat/Info : Advanced Audio Codec\nFormat version : Version 4\nFormat profile : LC\nFormat settings, SBR : No\nCodec ID : 40\nDuration : 43mn 29s\nBit rate mode : Variable\nBit rate : 62.7 Kbps\nMaximum bit rate : 120 Kbps\nChannel(s) : 2 channels\nChannel positions : L R\nSampling rate : 22.05 KHz\nResolution : 16 bits\nStream size : 19.5 MiB (11%)\n","torrent":{"xt":"urn:btih:123b497da7998bc64a008d460201ce0a5da072d0","amp;dn":"Lost+S01E03+-+AVM+%28Embedded+subtitles%29","amp;tr":["udp%3A%2F%2Ftracker.openbittorrent.com%3A80","udp%3A%2F%2Fopen.demonii.com%3A1337","udp%3A%2F%2Ftracker.coppersurfer.tk%3A6969","udp%3A%2F%2Fexodus.desync.com%3A6969"],"infoHash":"123b497da7998bc64a008d460201ce0a5da072d0","infoHashBuffer":{"type":"Buffer","data":[18,59,73,125,167,153,139,198,74,0,141,70,2,1,206,10,93,160,114,208]},"announce":[],"urlList":[]}}